<svg width="421" height="140" viewBox="0 0 421 140" fill="none" xmlns="http://www.w3.org/2000/svg">
<path d="M79.2813 42.6962C85.0591 47.0197 89.4874 52.9547 91.7408 59.715C91.8849 60.1605 92.0291 60.619 92.1601 61.0776C92.2518 61.4182 92.3435 61.772 92.4352 62.1126C92.527 62.4794 92.6055 62.8332 92.6972 63.1869C92.802 63.6585 92.8807 64.1302 92.9724 64.6019C92.9986 64.7984 93.0379 65.008 93.0641 65.2176C93.1034 65.5059 93.1427 65.781 93.1689 66.0823C93.2082 66.3575 93.2344 66.6195 93.2606 66.9077C93.2868 67.196 93.313 67.4842 93.3261 67.7855C93.3654 68.1917 93.3785 68.5978 93.3916 69.0171C93.4047 69.2398 93.4047 69.4756 93.4047 69.7114L100.493 64.7198V64.8508C112.061 57.1602 133.626 43.7574 136.194 41.242C136.207 41.2289 136.207 41.2289 136.207 41.2289C140.02 37.2722 142.26 32.0579 142.47 26.5815C142.588 20.6465 140.347 14.8819 136.26 10.5715C136.22 10.5453 136.194 10.506 136.155 10.4798C134.976 9.27444 133.796 8.08222 132.604 6.88999C131.386 5.65846 129.892 4.68895 128.202 4.2697C124.992 3.48361 121.874 4.46622 119.765 6.56246L74.9316 39.4471C76.4383 40.5607 77.8926 41.6481 79.2027 42.6176C79.2289 42.6569 79.2551 42.67 79.2813 42.6962Z" fill="white"/>
<path d="M54.1396 96.6874C53.1177 88.5121 49.3314 80.9002 43.4226 75.1748C43.3571 75.1224 43.3047 75.07 43.2392 75.0176C43.095 74.8735 42.8855 74.6901 42.6234 74.4805C31.2383 82.1186 8.9003 96.0847 6.35862 98.6133L6.1228 98.8491C2.36269 102.845 0.187799 108.086 0.0174806 113.575C-0.0349252 119.51 2.25782 125.249 6.39788 129.507C6.41098 129.52 6.42412 129.533 6.43722 129.559C7.74737 130.843 9.0575 132.14 10.3545 133.424C13.8526 136.883 19.4862 136.856 22.9319 133.358L48.6239 114.296C51.8076 110.143 55.227 106.199 54.1396 96.6874Z" fill="white"/>
<path d="M83.9585 80.2712C84.1027 79.8257 84.2468 79.3672 84.3778 78.9086C84.4695 78.568 84.5613 78.2143 84.653 77.8736C84.7447 77.5068 84.8232 77.1531 84.9149 76.7993C85.0197 76.3277 85.0984 75.856 85.1901 75.3844C85.2163 75.1879 85.2556 74.9782 85.2818 74.7686C85.3211 74.4804 85.3604 74.2052 85.3866 73.9039C85.4259 73.6288 85.4522 73.3667 85.4784 73.0785C85.5046 72.7903 85.5308 72.502 85.5439 72.2007C85.5832 71.7945 85.5962 71.3884 85.6093 70.9692C85.6356 70.2748 85.6487 69.5673 85.6225 68.8467C85.5963 67.6807 85.5045 66.5278 85.3473 65.3749C85.3211 65.139 85.2949 64.9163 85.2556 64.6805C85.2032 64.3529 85.1508 64.0385 85.0853 63.711C85.0853 63.6717 85.0721 63.6455 85.0721 63.6061C85.0197 63.3048 84.9674 63.0297 84.9019 62.7414C84.8233 62.3615 84.7316 61.9685 84.6267 61.5886C84.5874 61.4444 84.5481 61.2872 84.5088 61.1431C84.3647 60.5928 84.1944 60.0556 84.024 59.5054C82.0326 53.4001 78.2725 48.0285 73.3726 43.8754C72.6651 43.2596 71.9445 42.67 71.1846 42.1198L22.7093 6.56246C20.5999 4.46622 17.4818 3.48361 14.2719 4.2697C12.5818 4.68895 11.0883 5.65846 9.86986 6.88999C8.67763 8.08222 7.49847 9.27444 6.31934 10.4798C6.28003 10.506 6.25389 10.5453 6.21458 10.5715C2.12693 14.8819 -0.113483 20.6465 0.00442963 26.5815C0.214053 32.0579 2.46754 37.2722 6.26696 41.2289C6.26696 41.2289 6.26697 41.2289 6.28008 41.242C9.64715 44.5304 45.663 66.554 49.0039 69.8556C49.0694 69.908 49.1218 69.9604 49.1873 70.0128C55.0961 75.7512 58.8824 83.35 59.9043 91.5253C61.1489 102.478 56.4324 106.042 52.9867 111.02L55.5415 109.173C55.5415 109.173 59.1706 106.461 63.4024 103.317C64.3719 102.596 65.3676 101.849 66.3764 101.102C68.1582 99.7792 69.9007 98.4822 71.4205 97.3555C71.4467 97.3293 71.4729 97.3162 71.4991 97.29C77.2768 92.9796 81.7051 87.0446 83.9585 80.2712Z" fill="white"/>
<path d="M136.115 98.6132C132.853 95.3509 96.7324 73.144 93.4701 69.8686L93.4046 69.8031C93.4177 70.2485 93.4177 70.694 93.3915 71.1394C93.3653 72.3055 93.2736 73.4584 93.1164 74.6113C93.0901 74.8471 93.0639 75.0699 93.0246 75.3057C92.9722 75.6332 92.9198 75.9477 92.8543 76.2752C92.8543 76.3145 92.8413 76.3407 92.8413 76.38C92.7889 76.6813 92.7365 76.9565 92.6709 77.2447C92.5923 77.6247 92.5006 78.0177 92.3958 78.3976C92.3565 78.5418 92.3171 78.699 92.2778 78.8431C92.1337 79.3934 91.9634 79.9305 91.7931 80.4808C89.8017 86.5861 86.0415 91.9576 81.1416 96.1108C80.4341 96.7266 79.7136 97.3161 78.9537 97.8664L75.3115 100.539C75.5736 100.736 75.8355 100.919 76.0976 101.116C77.0933 101.862 78.1021 102.609 79.0716 103.33L89.4742 111.033L119.529 133.332C122.988 136.83 128.608 136.856 132.106 133.398C133.403 132.114 134.713 130.817 136.024 129.533C136.037 129.506 136.05 129.493 136.063 129.48C140.203 125.222 142.496 119.497 142.443 113.549C142.286 108.059 140.111 102.819 136.338 98.8228L136.115 98.6132Z" fill="white"/>
<path d="M179.047 55H210.356V46.9088H187.49V36.355H207.894V28.2638H187.49V18.7654H209.653V10.6742H179.047V55ZM212.813 55H221.608L228.644 44.0944L235.68 55H244.475L233.569 38.4658L243.771 22.6351H234.976L228.644 32.8371L222.312 22.6351H213.517L223.719 38.4658L212.813 55ZM248.358 66.2573H256.449V52.1857C257.083 52.8189 257.857 53.3114 258.701 53.8039C260.178 54.5778 262.148 55.3518 264.892 55.3518C272.984 55.3518 280.019 48.3863 280.019 38.8176C280.019 29.2488 272.984 22.2833 264.892 22.2833C262.078 22.2833 259.827 23.198 258.208 24.0423C257.294 24.5348 256.449 25.168 255.746 25.8013L254.339 22.6351H248.358V66.2573ZM263.837 47.6124C259.264 47.6124 255.746 44.1648 255.746 38.8176C255.746 33.4703 259.264 30.0228 263.837 30.0228C268.41 30.0228 271.928 33.4703 271.928 38.8176C271.928 44.1648 268.41 47.6124 263.837 47.6124ZM286.011 55H294.102V37.7622C294.102 33.5407 296.846 30.7264 300.786 30.7264C301.63 30.7264 302.334 30.8671 302.827 30.9374L303.601 31.0781V22.6351L302.897 22.4944C302.404 22.4241 301.912 22.2833 301.138 22.2833C298.675 22.2833 296.776 23.198 295.439 24.2534C294.665 24.8162 293.961 25.4495 293.399 26.1531L291.991 22.6351H286.011V55ZM329.295 45.1498C328.943 45.6423 328.451 46.0645 327.888 46.4163C326.833 47.0495 325.496 47.6124 323.315 47.6124C319.093 47.6124 316.701 45.1498 315.927 41.9837H338.442L338.582 40.9283C338.653 40.2951 338.793 39.5915 338.793 38.8176C338.793 28.9674 331.758 22.2833 323.315 22.2833C314.59 22.2833 307.132 29.671 307.132 38.8176C307.132 47.9642 314.59 55.3518 323.315 55.3518C330.632 55.3518 336.049 50.0046 337.738 45.1498H329.295ZM315.575 36.355C316.349 32.7667 319.093 30.0228 323.315 30.0228C327.536 30.0228 330.28 32.7667 331.054 36.355H315.575ZM342.998 44.798C343.632 51.2006 347.924 55.3518 356.367 55.3518C363.684 55.3518 368.328 50.7785 368.328 45.5016C368.328 33.9628 351.793 36.6365 351.793 32.1335C351.793 30.3746 353.2 28.9674 355.663 28.9674C358.126 28.9674 359.885 30.7264 360.236 32.1335H367.976C367.202 26.5048 363.121 22.2833 355.311 22.2833C348.275 22.2833 343.702 26.8566 343.702 32.1335C343.702 43.3205 360.236 40.5765 360.236 45.1498C360.236 46.9088 358.477 48.6677 355.663 48.6677C352.849 48.6677 351.09 46.9791 350.738 44.798H342.998ZM372.544 44.798C373.177 51.2006 377.469 55.3518 385.912 55.3518C393.229 55.3518 397.873 50.7785 397.873 45.5016C397.873 33.9628 381.338 36.6365 381.338 32.1335C381.338 30.3746 382.745 28.9674 385.208 28.9674C387.671 28.9674 389.43 30.7264 389.781 32.1335H397.521C396.747 26.5048 392.666 22.2833 384.856 22.2833C377.82 22.2833 373.247 26.8566 373.247 32.1335C373.247 43.3205 389.781 40.5765 389.781 45.1498C389.781 46.9088 388.022 48.6677 385.208 48.6677C382.394 48.6677 380.635 46.9791 380.283 44.798H372.544ZM179.047 125H187.49V110.225H195.581C204.024 110.225 210.708 103.611 210.708 95.4495C210.708 87.2879 204.024 80.6742 195.581 80.6742H179.047V125ZM187.49 102.134V88.7654H195.581C199.099 88.7654 202.265 91.9316 202.265 95.4495C202.265 98.9674 199.099 102.134 195.581 102.134H187.49ZM216.683 125H224.774V107.762C224.774 103.541 227.518 100.726 231.458 100.726C232.303 100.726 233.006 100.867 233.499 100.937L234.273 101.078V92.6351L233.569 92.4944C233.077 92.4241 232.584 92.2833 231.81 92.2833C229.348 92.2833 227.448 93.198 226.111 94.2534C225.337 94.8162 224.634 95.4495 224.071 96.1531L222.664 92.6351H216.683V125ZM253.987 100.023C258.56 100.023 262.078 103.47 262.078 108.818C262.078 114.165 258.56 117.612 253.987 117.612C249.414 117.612 245.896 114.165 245.896 108.818C245.896 103.47 249.414 100.023 253.987 100.023ZM253.987 92.2833C245.262 92.2833 237.804 99.671 237.804 108.818C237.804 117.964 245.262 125.352 253.987 125.352C262.711 125.352 270.169 117.964 270.169 108.818C270.169 99.671 262.711 92.2833 253.987 92.2833ZM278.579 113.743C278.579 120.778 283.082 125.352 289.485 125.352C290.54 125.352 291.455 125.211 292.229 125C292.651 124.93 293.003 124.789 293.355 124.648V117.612L292.792 117.823C292.44 117.894 292.018 117.964 291.244 117.964C288.43 117.964 286.671 116.205 286.671 113.391V100.023H293.706V92.6351H286.671V84.8957H279.635V89.469C279.635 92.0723 278.368 93.3387 275.765 93.3387H273.654V100.023H278.579V113.743ZM314.108 100.023C318.681 100.023 322.199 103.47 322.199 108.818C322.199 114.165 318.681 117.612 314.108 117.612C309.534 117.612 306.016 114.165 306.016 108.818C306.016 103.47 309.534 100.023 314.108 100.023ZM314.108 92.2833C305.383 92.2833 297.925 99.671 297.925 108.818C297.925 117.964 305.383 125.352 314.108 125.352C322.832 125.352 330.29 117.964 330.29 108.818C330.29 99.671 322.832 92.2833 314.108 92.2833ZM357.697 113.039C357.345 113.954 356.782 114.728 356.149 115.361C355.023 116.487 353.264 117.612 350.661 117.612C346.088 117.612 342.57 114.165 342.57 108.818C342.57 103.47 346.088 100.023 350.661 100.023C353.264 100.023 355.023 101.219 356.149 102.345C356.782 102.978 357.345 103.752 357.697 104.596H365.788C364.31 98.1934 358.4 92.2833 350.661 92.2833C341.937 92.2833 334.479 99.671 334.479 108.818C334.479 117.964 341.937 125.352 350.661 125.352C358.4 125.352 364.31 119.442 365.788 113.039H357.697ZM385.84 100.023C390.413 100.023 393.931 103.47 393.931 108.818C393.931 114.165 390.413 117.612 385.84 117.612C381.267 117.612 377.749 114.165 377.749 108.818C377.749 103.47 381.267 100.023 385.84 100.023ZM385.84 92.2833C377.116 92.2833 369.658 99.671 369.658 108.818C369.658 117.964 377.116 125.352 385.84 125.352C394.565 125.352 402.023 117.964 402.023 108.818C402.023 99.671 394.565 92.2833 385.84 92.2833ZM407.97 125H416.061V80.6742H407.97V125Z" fill="white"/>
</svg>
